<?xml version="1.0" encoding="UTF-8"?>
<svg fill="#FF0440" width="100pt" height="100pt" version="1.1" viewBox="0 0 100 100" xmlns="http://www.w3.org/2000/svg">
 <path d="m94.773 79.383l-4.2227 1.0547-6.2148-13.672-1.9414-17.48 2.875 0.41016c0.19141 0.027344 0.38281 0.039063 0.57031 0.039063 1.6953 0 3.2344-1.082 3.7852-2.7305 0.375-1.125 0.23438-2.3516-0.39062-3.3633-0.625-1.0078-1.6562-1.6875-2.832-1.8516l-3.5898-0.50781v-31.906c0-4.3086-3.5039-7.8125-7.8125-7.8125h-65.625c-4.3086 0-7.8125 3.5039-7.8125 7.8125 0 3.7734 2.6875 6.9297 6.25 7.6562v81.406h62.438l0.125 0.42969 3.0039-0.85938-2.6797-9.3828 22.031-5.5078 2.668 8.0039 2.9648-0.98828zm-7.3047 1.8281l-6.6797 1.6719-7.168 1.793-3.5234-10.578-11.18-9.5742-13.684-13.684-0.99609-7.957c-0.03125-0.26562-0.007812-0.52734 0.058594-0.77344l0.074219-0.19141c0.15234-0.39062 0.40625-0.71094 0.73047-0.9375 0.8125-0.52734 1.9922-0.375 2.6445 0.34375 0.10547 0.125 0.20312 0.25781 0.28125 0.40625l1.4219 2.8438 2.4414 4.8867 7.6289 5.7227 6.4883-6.4883-1.0898-1.9062 14.281 2.0391 2.0586 18.531zm-59.328-26.82c1.0078 0.1875 2.0469 0.29688 3.1094 0.29688 3.9922 0 7.793-1.3945 10.832-3.8711l0.18359 1.4727 11.004 11c-2.6602 3.4297-6.707 5.4609-11.082 5.4609-7.7539 0-14.062-6.3086-14.062-14.062 0-0.10156 0.011719-0.19531 0.015625-0.29688zm50.082-14.375l0.070313 0.61719-7.7656-1.1094-10.621-1.5156-1.2695-2.2266-6.6055 1.1016-3.957-0.56641c-0.15234-0.32812-0.1875-0.69922-0.09375-1.0703 0.12891-0.51953 0.49609-0.92188 1.0039-1.1094l11.809-4.293zm-3.7305 4.9844l-15.453-2.207-7.5234-1.0742-0.69141-1.3789c-0.089844-0.17969-0.1875-0.35156-0.29297-0.51562l7.418 1.0586 20.488 2.9258 1.1875 0.17188-0.28906 1.7109zm-34.348-4.207l1.043 1.043c-0.074219 0.47266-0.10938 0.95312-0.046875 1.4336l0.24219 1.9453c-0.875-1.3203-1.5156-2.7812-1.8984-4.3242 0.21875-0.042969 0.44141-0.066406 0.66016-0.097656zm20.949-14.387l-13.184 4.793c-0.20312 0.074219-0.37891 0.19141-0.56641 0.28906-0.69141-1.8516-1.6875-3.5391-2.9219-5.0117 2.3945-1.8984 5.4141-3.0391 8.7031-3.0391 3.7422 0 7.25 1.5234 9.8281 4.0547zm-16.133 8.0352c-0.003907 0.015625-0.015626 0.03125-0.015626 0.046875-0.125 0.50781-0.14062 1.0156-0.097656 1.5234l-5.0312 1.6797c-0.24219 0.035156-0.49219 0.0625-0.73047 0.10156-0.007813-0.097657-0.023438-0.19531-0.023438-0.29297 0-3.3359 1.1719-6.4023 3.1211-8.8164 1.3281 1.6445 2.293 3.5977 2.7773 5.7578zm-9.0234 3.0586c0 0.38672 0.039062 0.76562 0.066406 1.1484-5.1719 1.9727-9.0586 6.3281-10.441 11.703-4.9258-2.1914-8.375-7.125-8.375-12.852 0-7.7539 6.3086-14.062 14.062-14.062 3.2578 0 6.2891 1.1328 8.707 3.0391-2.5039 2.9844-4.0195 6.8281-4.0195 11.023zm0.57031 4.3281c0.63672 2.4609 1.8125 4.7422 3.4609 6.6953-2.4648 1.9492-5.5195 3.0391-8.7188 3.0391-0.92578 0-1.8281-0.09375-2.7031-0.26562 1.043-4.25 3.9922-7.7344 7.9609-9.4688zm25.605 6.3477l-2.8867 2.8867-4.8711-3.6523-1.1445-2.293 7.7891 1.1133zm24.461-2.8867c0.078125 0.12891 0.19531 0.39844 0.085937 0.73047-0.13281 0.39844-0.53906 0.63281-0.94531 0.58594l-3.2852-0.46875 0.28906-1.7109 3.2383 0.46094c0.35156 0.046875 0.53516 0.26953 0.61719 0.40234zm-6.8867-35.914v27.879l-3.125-1.8242v-21.367h-1.5625c-2.5859 0-4.6875-2.1016-4.6875-4.6875s2.1016-4.6875 4.6875-4.6875 4.6875 2.1016 4.6875 4.6875zm-75 0c0-2.5859 2.1016-4.6875 4.6875-4.6875h59.414c-0.99219 1.3086-1.6016 2.9219-1.6016 4.6875s0.60938 3.3789 1.6016 4.6875h-59.414c-2.5859 0-4.6875-2.1016-4.6875-4.6875zm62.117 77l2.5547 8.9375h-58.422v-78.125h62.5v16.422l-4.418-2.5781c-2.6211-6.4297-8.9297-10.719-15.895-10.719-4.1523 0-7.9609 1.4805-10.938 3.9375-2.9961-2.4727-6.8242-3.9375-10.938-3.9375-9.4766 0-17.188 7.7109-17.188 17.188 0 7.2891 4.5703 13.52 10.992 16.016-0.023438 0.38672-0.054688 0.77734-0.054688 1.1719 0 9.4766 7.7109 17.188 17.188 17.188 5.2188 0 10.062-2.3516 13.312-6.3594l1.293 1.293 10.609 9.0938 3.1758 9.5273z"/>
</svg>
