<?xml version="1.0" encoding="UTF-8"?>
<svg fill="#FF0440" width="100pt" height="100pt" version="1.1" viewBox="0 0 100 100" xmlns="http://www.w3.org/2000/svg">
 <g>
  <path d="m4.6875 31.25h25c0.41406 0 0.8125-0.16406 1.1055-0.45703s0.45703-0.69141 0.45703-1.1055v-25c0-0.41406-0.16406-0.8125-0.45703-1.1055s-0.69141-0.45703-1.1055-0.45703h-25c-0.86328 0-1.5625 0.69922-1.5625 1.5625v25c0 0.41406 0.16406 0.8125 0.45703 1.1055s0.69141 0.45703 1.1055 0.45703zm1.5625-25h21.875v21.875h-21.875z"/>
  <path d="m92.188 30 3.125-15.625c0.10547-0.60938-0.16016-1.2188-0.67188-1.5625l-14.062-9.375c-0.51953-0.34375-1.1992-0.34375-1.7188 0l-14.062 9.375c-0.51172 0.34375-0.77734 0.95312-0.67188 1.5625l3.125 15.625c0.15234 0.73828 0.80859 1.2656 1.5625 1.25h21.812c0.75391 0.015625 1.4102-0.51172 1.5625-1.25zm-22.156-1.875-2.6719-13.344 12.328-8.2188 12.328 8.2188-2.6719 13.344z"/>
  <path d="m4.6875 96.875h28.125c0.55469-0.003906 1.0664-0.30078 1.3438-0.78125 0.27734-0.48438 0.27734-1.0781 0-1.5625l-14.062-25c-0.27734-0.48828-0.79688-0.79297-1.3594-0.79297s-1.082 0.30469-1.3594 0.79297l-14.062 25c-0.27734 0.48438-0.27734 1.0781 0 1.5625 0.28125 0.49219 0.80859 0.78906 1.375 0.78125zm14.062-23.438 11.391 20.312h-22.781z"/>
  <path d="m81.25 65.625c-4.1445 0-8.1172 1.6445-11.047 4.5781-2.9336 2.9297-4.5781 6.9023-4.5781 11.047s1.6445 8.1172 4.5781 11.047c2.9297 2.9336 6.9023 4.5781 11.047 4.5781s8.1172-1.6445 11.047-4.5781c2.9336-2.9297 4.5781-6.9023 4.5781-11.047s-1.6445-8.1172-4.5781-11.047c-2.9297-2.9336-6.9023-4.5781-11.047-4.5781zm0 28.125c-5.0547 0-9.6133-3.0469-11.547-7.7148-1.9375-4.6719-0.86719-10.051 2.707-13.625 3.5742-3.5742 8.9531-4.6445 13.625-2.707 4.668 1.9336 7.7148 6.4922 7.7148 11.547 0 3.3164-1.3164 6.4961-3.6602 8.8398s-5.5234 3.6602-8.8398 3.6602z"/>
  <path d="m41.078 9.8281-6.25 6.25c-0.29688 0.29297-0.46094 0.69141-0.46094 1.1094s0.16406 0.81641 0.46094 1.1094l6.25 6.25 2.2188-2.2188-3.5938-3.5781h21.234v-3.125h-21.234l3.5938-3.5781z"/>
  <path d="m34.828 83.922 6.25 6.25 2.2188-2.2188-3.5938-3.5781h21.234v-3.125h-21.234l3.5938-3.5781-2.2188-2.2188-6.25 6.25c-0.29688 0.29297-0.46094 0.69141-0.46094 1.1094s0.16406 0.81641 0.46094 1.1094z"/>
  <path d="m82.812 62.5v-21.234l3.5781 3.5938 2.2188-2.2188-6.25-6.25c-0.29297-0.29688-0.69141-0.46094-1.1094-0.46094s-0.81641 0.16406-1.1094 0.46094l-6.25 6.25 2.2188 2.2188 3.5781-3.5938v21.234z"/>
  <path d="m17.188 62.5v-21.234l3.5781 3.5938 2.2188-2.2188-6.25-6.25c-0.29297-0.29688-0.69141-0.46094-1.1094-0.46094s-0.81641 0.16406-1.1094 0.46094l-6.25 6.25 2.2188 2.2188 3.5781-3.5938v21.234z"/>
 </g>
</svg>
